HIERARCHY
ROOT pelvis
{
  OFFSET 0 100 0
  CHANNELS 6 Xposition Yposition Zposition Zrotation Xrotation Yrotation
  JOINT pelvis_right_femur
  {
    OFFSET -10.78128 -3.44521 -0.5502486
    CHANNELS 3 Zrotation Xrotation Yrotation
    JOINT right_femur_tibia
    {
      OFFSET -0.8047443 -44.0398 -0.1307829
      CHANNELS 3 Zrotation Xrotation Yrotation
      JOINT right_tibia_foot
      {
        OFFSET 3.006224 -47.83518 -5
        CHANNELS 3 Zrotation Xrotation Yrotation
        End Site
        {
          OFFSET 0 -5 15
        }
      }
    }
  }
  JOINT pelvis_left_femur
  {
    OFFSET 10.78128 -3.44521 -0.5502486
    CHANNELS 3 Zrotation Xrotation Yrotation
    JOINT left_femur_tibia
    {
      OFFSET 0.8047443 -44.0398 -0.1307829
      CHANNELS 3 Zrotation Xrotation Yrotation
      JOINT left_tibia_foot
      {
        OFFSET -4.370144 -48.10324 -4.275266
        CHANNELS 3 Zrotation Xrotation Yrotation
        End Site
        {
          OFFSET 0 -5 15
        }
      }
    }
  }
  JOINT pelvis_spine1
  {
    OFFSET 0 6.468898 -3.129235
    CHANNELS 3 Zrotation Xrotation Yrotation
    JOINT spine1
    {
      OFFSET 0 23.15396 4.99043
      CHANNELS 3 Zrotation Xrotation Yrotation
      JOINT spine2
      {
        OFFSET 0 20.79997 -5.064912
        CHANNELS 3 Zrotation Xrotation Yrotation
        JOINT neck
        {
          OFFSET 0 14.38658 9.616178
          CHANNELS 3 Zrotation Xrotation Yrotation
          End Site
          {
            OFFSET 0 20 0
          }
        }
      }
      JOINT right_manubrium
      {
        OFFSET -5.722621 16.35077 3.967754
        CHANNELS 3 Zrotation Xrotation Yrotation
        JOINT right_clavicle
        {
          OFFSET -13.16364 1.694482 -4.693211
          CHANNELS 3 Zrotation Xrotation Yrotation
          JOINT right_humerus
          {
            OFFSET -28.5034 -0.3100689 -2.792744
            CHANNELS 3 Zrotation Xrotation Yrotation
            JOINT right_radius
            {
              OFFSET -25.15693 0.02248979 -1.271978
              CHANNELS 3 Zrotation Xrotation Yrotation
              End Site
              {
                OFFSET -15 0 0
              }
            }
          }
        }
      }
      JOINT left_manubrium
      {
        OFFSET 5.722621 16.35077 3.967754
        CHANNELS 3 Zrotation Xrotation Yrotation
        JOINT left_clavicle
        {
          OFFSET 13.16364 1.694482 -4.693211
          CHANNELS 3 Zrotation Xrotation Yrotation
          JOINT left_humerus
          {
            OFFSET 29.39168 -1.063119 -2.237045
            CHANNELS 3 Zrotation Xrotation Yrotation
            JOINT left_radius
            {
              OFFSET 24.59957 -0.9528479 0.9047498
              CHANNELS 3 Zrotation Xrotation Yrotation
              End Site
              {
                OFFSET 15 -0 -0
              }
            }
          }
        }
      }
    }
  }
}
MOTION
Frames: 23
Frame Time: 0.0416666666667
282.0638 154.3016 2689.646 2.831467 -9.033166 7.211971 -0.6063266 19.20634 -1.104602 -0 35.82177 -0 -9.811114 3.071503 1.696829 -4.547636 -13.29223 -12.22511 -0 17.43919 -0 -3.045568 -8.680344 22.70803 0.4999977 -2.430389 9.013108 0.6896015 14.98947 -6.113354 -0.4481236 20.04812 4.027166 3.667486 -16.82328 2.24869 0.4303534 -29.26379 13.24581 85.69889 23.36374 -10.63398 -0 0 26.36602 -20.94923 12.93414 9.695084 3.614386 -25.21338 -7.465491 -95.36281 8.391998 36.33873 0 0 -4.106677 10.81062 12.75127 -0.9366385
283.7794 155.725 2695.931 3.065581 -9.183796 7.513659 -1.082388 15.21773 -1.318057 -0 42.72064 -0 -11.00496 8.784926 2.149728 -5.321475 -9.641497 -12.42083 -0 18.40532 -0 -1.839238 -9.362295 22.04588 0.4385533 -2.263073 9.000061 0.6774526 14.83459 -6.071752 -0.4175797 20.16794 4.083561 3.626066 -17.13757 2.426118 0.2455913 -29.1634 13.10777 85.9201 23.8776 -10.70864 -0 0 26.00922 -20.68897 12.5724 9.464992 3.602256 -25.01746 -7.322029 -95.16918 8.705157 35.96604 0 0 -4.49843 11.05968 12.54317 -1.258592
285.4123 157.3827 2701.871 3.002594 -9.332092 8.037559 -1.128386 9.71834 -1.801148 -0 47.77706 -0 -12.28559 12.59879 2.485597 -5.593922 -5.553568 -12.3162 -0 18.15463 -0 -0.7603873 -10.2045 21.04767 0.285966 -2.013481 8.946107 0.647781 14.63074 -6.000021 -0.3988399 20.35823 4.207377 3.714821 -17.43933 2.5853 0.1401343 -28.83763 12.90479 86.19111 24.70072 -10.96262 -0 0 25.37561 -20.1839 11.87722 8.977514 3.615869 -24.81395 -7.305852 -94.87915 9.037539 35.30879 0 0 -5.000505 11.54411 12.18016 -1.790154
286.9184 158.9148 2707.398 2.825577 -9.757008 8.669001 -0.91989 3.688693 -2.616616 -0 48.83406 -0 -13.24003 13.7446 2.432312 -5.47306 -1.020281 -12.20041 -0 16.88743 -0 -0.235876 -11.46082 20.14343 0.006312544 -1.723234 8.868604 0.5905953 14.3711 -5.884597 -0.4045617 20.59972 4.402739 3.961173 -17.65663 2.691285 0.1830656 -28.32651 12.64018 86.38931 25.83633 -11.29349 -0 0 24.60362 -19.45455 10.86012 8.291455 3.679048 -24.60998 -7.418215 -94.5474 9.361454 34.46581 0 0 -5.499763 12.21676 11.67019 -2.439575
288.2638 160.0175 2712.597 2.776523 -10.31554 9.278367 -0.7376508 -1.859838 -3.686102 -0 45.11653 -0 -13.44374 12.60079 1.870919 -5.227472 3.672394 -12.15141 -0 15.16049 -0 -0.264424 -13.15895 19.48218 -0.4283758 -1.453145 8.783498 0.4931386 14.06511 -5.711678 -0.4347553 20.87112 4.650087 4.35841 -17.71665 2.718293 0.4279532 -27.70475 12.32247 86.3846 27.21293 -11.55385 -0 0 23.88231 -18.57051 9.586441 7.523898 3.805276 -24.39624 -7.651649 -94.24109 9.667032 33.55826 0 0 -5.862584 12.97937 11.05657 -3.066736
289.4547 160.5646 2717.645 2.953832 -10.63714 9.793246 -0.7449445 -6.352187 -4.926188 -0 38.06585 -0 -12.97569 10.30009 1.133854 -5.126519 7.923612 -12.12949 -0 13.48963 -0 -0.4202496 -15.01139 18.96843 -1.023354 -1.254338 8.690419 0.3478944 13.7405 -5.478337 -0.4726263 21.16458 4.909891 4.860598 -17.58405 2.666643 0.8824625 -27.04022 11.96277 86.11484 28.70338 -11.6332 -0 0 23.34439 -17.61964 8.148736 6.793061 3.987656 -24.15005 -7.996976 -93.99517 9.969532 32.64601 0 0 -6.008688 13.7315 10.40441 -3.5618
290.5381 160.5903 2722.683 3.287872 -10.58011 10.20096 -0.8946138 -9.693981 -6.252656 -0 30.16474 -0 -12.2976 7.91478 0.6765466 -5.258281 11.21596 -12.08576 -0 12.19425 -0 -0.2196652 -16.5935 18.53848 -1.740182 -1.149827 8.56979 0.1624034 13.43891 -5.205074 -0.4902806 21.48148 5.13542 5.386158 -17.29163 2.572263 1.488358 -26.37798 11.58116 85.6333 30.14895 -11.51784 -0 0 23.0096 -16.7028 6.673506 6.18379 4.202043 -23.85472 -8.427515 -93.78821 10.28576 31.70024 0 0 -5.958283 14.40874 9.792156 -3.91347
291.5738 160.1991 2727.781 3.677232 -10.30698 10.52129 -1.050285 -12.06458 -7.596468 -0 23.15913 -0 -11.7884 6.049866 0.6760537 -5.550806 13.44758 -11.95429 -0 11.44696 -0 0.5559158 -17.63864 18.21217 -2.484164 -1.128572 8.397314 -0.03694919 13.20187 -4.93756 -0.4636593 21.81355 5.292654 5.838171 -16.9429 2.498211 2.124191 -25.74963 11.21332 85.1016 31.39252 -11.29985 -0 0 22.80078 -15.93527 5.331499 5.735591 4.419926 -23.52275 -8.877868 -93.55916 10.60079 30.65478 0 0 -5.825275 14.99331 9.300071 -4.220332
292.6108 159.5033 2732.976 4.065534 -10.06348 10.78516 -1.110815 -13.72071 -8.959015 -0 17.57603 -0 -11.61771 4.92097 1.077777 -5.892654 14.8328 -11.65301 -0 11.34367 -0 1.841618 -18.11308 17.97788 -3.128393 -1.151121 8.162601 -0.2136616 13.05106 -4.730148 -0.3860881 22.13392 5.378016 6.142053 -16.67665 2.508814 2.642762 -25.17708 10.90187 84.72689 32.32701 -11.13591 -0 0 22.59441 -15.41751 4.291974 5.438322 4.622166 -23.19946 -9.253882 -93.24764 10.86773 29.47019 0 0 -5.772284 15.50455 8.984209 -4.632981
293.6825 158.6023 2738.305 4.435125 -10.0546 11.01703 -1.017827 -14.84828 -10.40135 -0 13.26311 -0 -11.85701 4.55778 1.778372 -6.19104 15.65651 -11.11491 -0 11.99027 -0 3.436093 -18.09482 17.77209 -3.569486 -1.171984 7.877386 -0.3377833 12.98064 -4.621264 -0.2704979 22.40707 5.416348 6.27571 -16.60104 2.637161 2.933689 -24.67092 10.67829 84.66324 32.91899 -11.16599 -0 0 22.28436 -15.1938 3.649913 5.249928 4.803658 -22.94199 -9.477865 -92.83073 11.04029 28.16718 0 0 -5.940874 15.96965 8.855663 -5.25228
294.8075 157.5871 2743.822 4.781563 -10.45287 11.22226 -0.7069989 -15.4939 -11.9758 -0 9.943097 -0 -12.56322 4.920578 2.691876 -6.365404 16.13829 -10.30238 -0 13.58566 -0 5.112916 -17.65076 17.52766 -3.768217 -1.163089 7.569625 -0.3969789 12.96872 -4.619906 -0.1404488 22.60605 5.43988 6.267627 -16.74474 2.869532 2.964926 -24.23362 10.5526 84.94707 33.18882 -11.44805 -0 0 21.82575 -15.23951 3.397615 5.127531 4.966184 -22.79269 -9.528769 -92.33279 11.10101 26.82301 0 0 -6.393415 16.39544 8.884244 -6.065187
295.9889 156.557 2749.574 5.091467 -11.42812 11.37579 -0.0637159 -15.53808 -13.63393 -0 7.505084 -0 -13.79063 5.902166 3.722924 -6.321092 16.38054 -9.22734 -0 16.45718 -0 6.660655 -16.76776 17.22344 -3.74635 -1.119628 7.272236 -0.3956426 12.99427 -4.709379 -0.01832315 22.72163 5.4679 6.169025 -17.06146 3.158233 2.774999 -23.86722 10.51633 85.51026 33.17959 -11.95275 -0 0 21.23743 -15.48196 3.455144 5.044512 5.107617 -22.76534 -9.443234 -91.80921 11.06445 25.54702 0 0 -7.099291 16.76426 9.019753 -6.963549
297.2075 155.6378 2755.575 5.32142 -13.12527 11.40813 1.082999 -14.69121 -15.12579 -0 6.10734 -0 -15.54042 7.250673 4.699926 -5.928184 16.30807 -7.990597 -0 20.97986 -0 7.916059 -15.32066 16.92452 -3.556936 -1.051403 7.016942 -0.34724 13.04652 -4.858986 0.08123307 22.75994 5.499728 6.025785 -17.4678 3.445901 2.437597 -23.58112 10.55206 86.23432 32.94038 -12.59693 -0 0 20.58219 -15.83064 3.719994 4.988999 5.215002 -22.84659 -9.287956 -91.32713 10.96387 24.46326 0 0 -7.953343 17.04665 9.211954 -7.802514
298.418 154.9762 2761.737 5.386334 -15.53703 11.20137 2.853851 -12.56978 -15.98076 -0 6.060504 -0 -17.66043 8.474586 5.322178 -5.03611 15.57367 -6.809449 -0 27.20068 -0 8.838746 -13.1174 16.78126 -3.258556 -0.9727882 6.833862 -0.2676695 13.12511 -5.033375 0.1513235 22.73484 5.51897 5.866396 -17.87636 3.681661 2.03281 -23.3967 10.6412 86.99187 32.52446 -13.27386 -0 0 19.95086 -16.19778 4.100268 4.95714 5.264235 -23.00396 -9.131404 -90.95607 10.83585 23.70595 0 0 -8.79818 17.21334 9.418912 -8.445037
299.5643 154.6667 2767.856 5.196578 -18.29626 10.63916 5.059613 -8.966959 -15.75546 -0 7.35689 -0 -19.76192 8.878736 5.23708 -3.576153 13.59396 -5.93038 -0 34.07028 -0 9.554339 -10.13336 16.90964 -2.903913 -0.8977584 6.748338 -0.1723591 13.23413 -5.199063 0.1899711 22.66133 5.50451 5.704485 -18.21338 3.828589 1.633155 -23.34205 10.76758 87.66616 31.99136 -13.87243 -0 0 19.44875 -16.51479 4.528976 4.95073 5.230118 -23.1962 -9.023994 -90.75767 10.70695 23.39835 0 0 -9.45607 17.24308 9.609543 -8.790853
300.6237 154.6316 2773.694 4.74954 -20.68263 9.723546 7.111321 -4.249073 -14.45832 -0 9.246805 -0 -21.30116 7.909245 4.309712 -1.70286 10.05108 -5.394319 -0 39.06455 -0 10.18382 -6.820064 17.20938 -2.536288 -0.839078 6.768129 -0.07519529 13.37304 -5.333 0.1980617 22.55209 5.445767 5.548116 -18.42999 3.870389 1.293711 -23.43116 10.91826 88.16971 31.39982 -14.30437 -0 0 19.16304 -16.75443 4.970315 4.97843 5.108036 -23.38922 -8.984349 -90.75999 10.58279 23.58719 0 0 -9.797705 17.13155 9.770013 -8.80834
301.6459 154.6285 2779.173 4.126161 -22.09896 8.602884 8.506782 0.6564135 -12.52441 -0 10.87069 -0 -21.87373 5.595517 2.788339 0.2776486 5.527089 -4.968584 -0 39.67908 -0 10.64875 -3.869397 17.39368 -2.1908 -0.8083273 6.873531 0.01186177 13.53129 -5.427677 0.1785438 22.41794 5.351732 5.409517 -18.50437 3.812203 1.048754 -23.64251 11.08222 88.45833 30.79755 -14.53085 -0 0 19.12597 -16.93588 5.411285 5.052093 4.927522 -23.56876 -9.002882 -90.93818 10.4485 24.191 0 0 -9.801712 16.89767 9.905508 -8.545252
302.7413 154.4501 2784.394 3.372495 -22.40083 7.437095 9.217276 4.884873 -10.28547 -0 12.2482 -0 -21.42895 2.482247 1.074868 2.134876 1.112833 -4.421622 -0 35.58934 -0 10.86658 -1.505212 17.13301 -1.897199 -0.8134212 7.030524 0.07926695 13.69222 -5.484542 0.134817 22.26913 5.243455 5.308034 -18.43095 3.668359 0.9198279 -23.92777 11.24853 88.52096 30.22397 -14.55663 -0 0 19.31948 -17.09099 5.838324 5.175773 4.734611 -23.73552 -9.064308 -91.23734 10.28396 25.0554 0 0 -9.523373 16.57643 10.02478 -8.086238
304.0391 154.0745 2789.521 2.531439 -21.66882 6.344397 9.367662 8.049592 -7.789497 -0 13.92189 -0 -20.11576 -0.8240608 -0.5449548 3.693966 -2.476793 -3.738246 -0 28.5463 -0 10.87084 0.5079502 16.14973 -1.672022 -0.8542783 7.208059 0.1232346 13.84176 -5.509504 0.07092812 22.11426 5.140829 5.259525 -18.22239 3.456821 0.9113202 -24.23584 11.40841 88.37919 29.70558 -14.41953 -0 0 19.69146 -17.2375 6.233466 5.339645 4.565133 -23.89526 -9.15811 -91.6019 10.07893 26.03256 0 0 -9.046111 16.20654 10.13021 -7.513266
305.6253 153.6126 2794.707 1.777233 -20.25125 5.443589 8.962099 10.25111 -5.25312 -0 16.09262 -0 -18.22082 -3.786517 -1.847328 4.682785 -4.895922 -3.231449 -0 21.07959 -0 10.54936 2.230748 14.6058 -1.511343 -0.921889 7.380134 0.1474324 13.97385 -5.514092 -0.005249198 21.96132 5.055514 5.263462 -17.91928 3.205134 0.9994748 -24.52369 11.55705 88.09763 29.24614 -14.18834 -0 0 20.15901 -17.38252 6.586549 5.523946 4.435643 -24.05315 -9.273738 -91.97918 9.839421 26.9954 0 0 -8.473096 15.82629 10.22365 -6.904746
307.4739 153.1437 2800.06 1.380146 -19.05597 4.8079 8.012461 12.09417 -3.454118 -0 18.41069 -0 -16.43446 -5.874611 -2.551563 4.810569 -5.88221 -3.578386 -0 15.46276 -0 9.505145 3.298322 13.44661 -1.398987 -1.002661 7.529229 0.1592084 14.08819 -5.510533 -0.08326135 21.81834 4.990044 5.303833 -17.57834 2.946413 1.142604 -24.7655 11.69151 87.75884 28.83961 -13.93443 -0 0 20.63718 -17.52544 6.895359 5.707644 4.345818 -24.2079 -9.397615 -92.32752 9.585975 27.85384 0 0 -7.90014 15.46814 10.30756 -6.326744
309.4444 152.6665 2805.623 1.460658 -18.95832 4.400955 6.708236 14.23072 -3.146339 -0 20.40904 -0 -15.57153 -6.733383 -2.470565 4.086155 -5.442669 -5.248813 -0 12.60972 -0 7.474875 3.316745 13.66589 -1.317714 -1.084704 7.651532 0.1654639 14.18535 -5.506375 -0.1554117 21.69024 4.941152 5.359621 -17.2487 2.70687 1.300912 -24.95996 11.80999 87.42449 28.4832 -13.69935 -0 0 21.07493 -17.65989 7.162674 5.87725 4.285428 -24.35253 -9.513836 -92.62864 9.343375 28.5788 0 0 -7.38323 15.14937 10.38284 -5.813974
311.3895 152.2083 2811.376 1.868671 -19.88572 4.137627 5.365132 16.62321 -4.145737 -0 22.02063 -0 -15.77885 -6.43037 -1.738017 2.910169 -4.018268 -7.828578 -0 11.85423 -0 4.88735 2.38886 15.1162 -1.253452 -1.161427 7.751878 0.1709786 14.26673 -5.50511 -0.2185536 21.57737 4.903734 5.413996 -16.95853 2.499549 1.447705 -25.12037 11.91324 87.12544 28.17217 -13.49602 -0 0 21.45678 -17.78207 7.396976 6.029201 4.24291 -24.48182 -9.61006 -92.88302 9.127545 29.18506 0 0 -6.940174 14.87189 10.45118 -5.372574
